<svg width="24" height="24" viewBox="0 0 24 24" fill="none" xmlns="http://www.w3.org/2000/svg">
    <path
        d="M7.75 6.75A4.254 4.254 0 0 1 12 2.5a4.254 4.254 0 0 1 4.25 4.249 4.238 4.238 0 0 1-4.089 4.241H12.133c-.09-.01-.185-.01-.271-.001C9.524 10.891 7.75 9.036 7.75 6.75z"
        fill="#6A1580" stroke="#6A1580" />
    <path
        d="M17.08 14.15c-2.79-1.86-7.34-1.86-10.15 0-1.27.85-1.97 2-1.97 3.23s.7 2.37 1.96 3.21C8.32 21.53 10.16 22 12 22c1.84 0 3.68-.47 5.08-1.41 1.26-.85 1.96-1.99 1.96-3.23-.01-1.23-.7-2.37-1.96-3.21z"
        fill="#6A1580" />
</svg>
