<svg width="24" height="24" viewBox="0 0 24 24" fill="none" xmlns="http://www.w3.org/2000/svg">
    <path d="m11.6 5.63.4.535.4-.535a5.049 5.049 0 0 1 4.04-2.03c2.791 0 5.06 2.274 5.06 5.09 0 1.136-.181 2.184-.496 3.156v.003c-.755 2.387-2.3 4.31-3.969 5.744-1.67 1.436-3.435 2.355-4.576 2.744l-.005.002A1.47 1.47 0 0 1 12 20.4a1.47 1.47 0 0 1-.454-.061l-.005-.002c-1.141-.389-2.906-1.308-4.576-2.744-1.669-1.433-3.214-3.357-3.968-5.744l-.001-.003A10.178 10.178 0 0 1 2.5 8.69c0-2.816 2.268-5.09 5.06-5.09 1.645 0 3.12.8 4.04 2.03z" fill="#76974C" stroke="#76974C"/>
</svg>
