<svg xmlns="http://www.w3.org/2000/svg" xmlns:xlink="http://www.w3.org/1999/xlink" version="1.1"  viewBox="0 0 96 120" style="enable-background:new 0 0 96 96;" xml:space="preserve" height="25" width="24"><style type="text/css">
	.st0{fill-rule:evenodd;clip-rule:evenodd;}
</style><path class="st0" d="M73.239,24.575l18.417,10.577c0.146,0.084,0.229,0.228,0.229,0.396V93.37c0,0.251-0.204,0.456-0.455,0.456  l-43.184,0.12c-0.254,0.001-0.458-0.202-0.458-0.457V79.613l10.536-10.536h23.501c0.73,0,1.321-0.591,1.321-1.321  c0-0.73-0.591-1.321-1.321-1.321H60.967l10.001-10.001h10.859c0.73,0,1.321-0.591,1.321-1.321s-0.591-1.321-1.321-1.321h-8.217  l4.659-4.659c0.783-0.783,1.089-1.93,0.8-3L73.239,24.575L73.239,24.575z M61.824,34.019c-1.208-1.358-1.143-4.007-0.95-5.695  c0.392-3.429,1.853-7.658,4.291-11.886c2.037-3.528,4.869-7.244,8.158-9.68c2.479-1.836,4.716-2.566,6.122-1.755  c1.407,0.812,1.893,3.115,1.542,6.181c-0.393,3.43-1.856,7.666-4.296,11.893c-0.059,0.108-0.126,0.217-0.189,0.324l2.286,1.313  c0.061-0.104,0.122-0.209,0.184-0.316c2.626-4.549,4.206-9.151,4.637-12.914c0.472-4.127-0.438-7.373-2.842-8.761  c-2.405-1.388-5.672-0.553-9.011,1.92c-3.046,2.256-6.24,5.924-8.869,10.478c-2.627,4.555-4.203,9.149-4.633,12.904  c-0.281,2.456-0.171,5.584,1.533,7.63C60.709,35.516,61.489,34.889,61.824,34.019L61.824,34.019z M69.999,22.714  c-0.044-0.163-0.164-0.282-0.328-0.323l-4.052-1.03c-1.007,2.276-1.794,4.708-2.094,7.042l-0.162,1.257  c1.782,2.058,1.695,5.174-0.26,7.13c-2.046,2.046-5.363,2.046-7.409,0c-1.941-1.941-2.04-5.026-0.299-7.085l0.239-2.042  c0.323-2.762,1.135-5.585,2.225-8.276L45.399,16.22c-0.16-0.041-0.318,0.003-0.435,0.12L4.248,57.055  c-0.179,0.179-0.178,0.468,0.001,0.647l30.62,30.451c0.178,0.177,0.467,0.177,0.645-0.001l40.887-40.887  c0.119-0.119,0.162-0.28,0.118-0.442L69.999,22.714L69.999,22.714z M37.564,37.966L54.519,54.92c0.516,0.516,1.352,0.516,1.868,0  c0.516-0.516,0.516-1.352,0-1.868L39.432,36.098c-0.516-0.516-1.352-0.516-1.868,0C37.048,36.614,37.048,37.45,37.564,37.966  L37.564,37.966z M19.685,55.845c-0.516-0.516-0.516-1.352,0-1.868c0.516-0.516,1.352-0.516,1.868,0l16.955,16.955  c0.516,0.516,0.516,1.352,0,1.868c-0.516,0.516-1.352,0.516-1.868,0L19.685,55.845L19.685,55.845z M28.624,46.905L45.579,63.86  c0.516,0.516,1.352,0.516,1.868,0c0.516-0.516,0.516-1.352,0-1.868L30.492,45.038c-0.516-0.516-1.352-0.516-1.868,0  C28.109,45.553,28.109,46.39,28.624,46.905L28.624,46.905z M57.849,81.719h23.977c0.73,0,1.321-0.591,1.321-1.321  c0-0.73-0.591-1.321-1.321-1.321H57.849c-0.73,0-1.321,0.591-1.321,1.321C56.528,81.128,57.119,81.719,57.849,81.719z"/></svg>