<svg xmlns="http://www.w3.org/2000/svg" data-name="Layer 1" viewBox="0 0 100 100" x="0px" y="0px"><title>Artboard 458</title><path d="M47.17,64.83a4,4,0,0,0,5.66,0l24-24a4,4,0,0,0-5.66-5.66l-24,24A4,4,0,0,0,47.17,64.83Z"/><circle cx="48" cy="36" r="6"/><circle cx="76" cy="64" r="6"/><path d="M94,10H42a16,16,0,0,0-12,5.43A16,16,0,0,0,18,10H6a4,4,0,0,0-4,4V86a4,4,0,0,0,4,4H18a16,16,0,0,0,12-5.43A16,16,0,0,0,42,90H94a4,4,0,0,0,4-4V14A4,4,0,0,0,94,10ZM90,82H42a8,8,0,0,1-8-8,4,4,0,0,0-8,0,8,8,0,0,1-8,8H10V18h8a8,8,0,0,1,8,8,4,4,0,0,0,8,0,8,8,0,0,1,8-8H90Z"/><path d="M30,42a4,4,0,0,0-4,4v8a4,4,0,0,0,8,0V46A4,4,0,0,0,30,42Z"/></svg>