<svg width="24" height="24" viewBox="0 0 24 24" fill="none" xmlns="http://www.w3.org/2000/svg">
    <path d="M21.003 8.658c-.758-.814-1.9-1.287-3.483-1.452V6.37a5.293 5.293 0 0 0-1.81-3.97c-1.165-1.034-2.68-1.518-4.252-1.375-2.703.253-4.976 2.793-4.976 5.543v.638C4.9 7.37 3.757 7.844 3 8.658c-1.097 1.188-1.063 2.771-.938 3.871l.791 6.127C3.09 20.8 3.983 23 8.846 23h6.31c4.863 0 5.756-2.2 5.994-4.334l.791-6.148c.125-1.089.147-2.672-.938-3.86zm-9.387-6.105c1.131-.099 2.206.242 3.042.98a3.777 3.777 0 0 1 1.29 2.837v.77H8.054v-.572c0-1.958 1.663-3.839 3.562-4.015zM7.952 13.266h-.011c-.622 0-1.13-.495-1.13-1.1 0-.605.508-1.1 1.13-1.1.633 0 1.142.495 1.142 1.1 0 .605-.509 1.1-1.13 1.1zm7.916 0h-.01c-.623 0-1.132-.495-1.132-1.1 0-.605.51-1.1 1.131-1.1.634 0 1.142.495 1.142 1.1 0 .605-.508 1.1-1.13 1.1z" fill="#76974C"/>
</svg>
