<svg width="34" height="34" viewBox="0 0 34 34" fill="none" xmlns="http://www.w3.org/2000/svg">
<circle cx="17" cy="17" r="17" fill="#E8F0DE"/>
<circle cx="17" cy="17" r="17" fill="#E8F0DE"/>
<path d="M24.1829 14.0418C23.3079 10.1918 19.9496 8.4585 16.9996 8.4585C16.9996 8.4585 16.9996 8.4585 16.9913 8.4585C14.0496 8.4585 10.6829 10.1835 9.80792 14.0335C8.83292 18.3335 11.4663 21.9752 13.8496 24.2668C14.7329 25.1168 15.8663 25.5418 16.9996 25.5418C18.1329 25.5418 19.2663 25.1168 20.1413 24.2668C22.5246 21.9752 25.1579 18.3418 24.1829 14.0418ZM16.9996 18.2168C15.5496 18.2168 14.3746 17.0418 14.3746 15.5918C14.3746 14.1418 15.5496 12.9668 16.9996 12.9668C18.4496 12.9668 19.6246 14.1418 19.6246 15.5918C19.6246 17.0418 18.4496 18.2168 16.9996 18.2168Z" fill="#76974C"/>
</svg>
