<svg width="84" height="84" viewBox="0 0 84 84" fill="none" xmlns="http://www.w3.org/2000/svg">
<g clip-path="url(#clip0_115_2194)">
<path d="M71.8112 50.3903L33.8334 51.3335L25.0834 14.3613H81.4355L71.8112 50.3903Z" fill="#76974C"/>
<path d="M70.0838 63.9629H24.4307C23.1969 63.9629 22.4565 63.2225 21.9629 62.2355L6.90968 5.47745H2.46781C0.987025 5.47745 0 4.49026 0 3.00964C0 1.52902 0.987025 0.541992 2.46781 0.541992H8.6371C9.87092 0.541992 10.6113 1.28239 11.1049 2.26941L26.1581 59.0275H70.084C71.5646 59.0275 72.5518 60.0145 72.5518 61.4953C72.5516 62.9759 71.5646 63.9629 70.0838 63.9629Z" fill="black"/>
<path d="M71.8112 52.858H21.4694C20.2356 52.858 19.4952 52.1176 19.0016 51.1306L9.37746 14.8548C9.13066 14.1144 9.37746 13.3741 9.87106 12.6338C10.3647 12.1402 11.1049 11.6467 11.8453 11.6467H81.4357C82.1761 11.6467 82.9163 11.8935 83.4099 12.6338C83.9035 13.1273 84.1503 14.1144 83.9035 14.8548L74.279 50.8839C73.7854 52.1178 72.7984 52.858 71.8112 52.858ZM23.1968 47.9225H69.8372L78.2274 16.829H15.0531L23.1968 47.9225Z" fill="black"/>
<path d="M24.4306 26.9466H7.40324C5.92262 26.9466 4.93542 25.9596 4.93542 24.4788C4.93542 22.998 5.92245 22.011 7.40324 22.011H24.4306C25.9113 22.011 26.8985 22.998 26.8985 24.4788C26.8985 25.9596 25.9113 26.9466 24.4306 26.9466Z" fill="black"/>
<path d="M21.4694 35.0904H4.44181C2.96119 35.0904 1.974 34.1034 1.974 32.6226C1.974 31.1418 2.96102 30.1548 4.44181 30.1548H21.4692C22.9498 30.1548 23.937 31.1418 23.937 32.6226C23.937 34.1034 22.95 35.0904 21.4694 35.0904Z" fill="black"/>
<path d="M26.8983 43.234H9.87089C8.39027 43.234 7.40308 42.2469 7.40308 40.7662C7.40308 39.2854 8.3901 38.2983 9.87089 38.2983H26.8983C28.3789 38.2983 29.3661 39.2854 29.3661 40.7662C29.3661 42.2469 28.3791 43.234 26.8983 43.234Z" fill="black"/>
<path d="M63.6678 83.4581C58.4855 83.4581 54.2903 79.2629 54.2903 74.0806C54.2903 68.8984 58.4855 64.7031 63.6678 64.7031C68.85 64.7031 73.0453 68.8984 73.0453 74.0806C73.0453 79.2629 68.85 83.4581 63.6678 83.4581ZM63.6678 69.6388C61.2 69.6388 59.2259 71.613 59.2259 74.0806C59.2259 76.5483 61.2001 78.5225 63.6678 78.5225C66.1354 78.5225 68.1096 76.5483 68.1096 74.0806C68.1096 71.613 66.1356 69.6388 63.6678 69.6388Z" fill="black"/>
<path d="M27.3919 83.4581C22.2096 83.4581 18.0144 79.2629 18.0144 74.0806C18.0144 68.8984 22.2096 64.7031 27.3919 64.7031C32.5742 64.7031 36.7694 68.8984 36.7694 74.0806C36.7694 79.2629 32.5742 83.4581 27.3919 83.4581ZM27.3919 69.6388C24.9241 69.6388 22.95 71.613 22.95 74.0806C22.95 76.5483 24.9243 78.5225 27.3919 78.5225C29.8595 78.5225 31.8338 76.5483 31.8338 74.0806C31.8338 71.613 29.8597 69.6388 27.3919 69.6388Z" fill="black"/>
</g>
<defs>
<clipPath id="clip0_115_2194">
<rect width="84" height="84" fill="white"/>
</clipPath>
</defs>
</svg>
