<svg width="140" height="140" viewBox="0 0 140 140" fill="none" xmlns="http://www.w3.org/2000/svg">
<circle cx="70" cy="70" r="70" fill="#E8F0DE"/>
<path fill-rule="evenodd" clip-rule="evenodd" d="M47.4565 97.5799C48.2213 97.7577 49.0046 97.8439 49.7898 97.8365H89.8765C92.2468 97.8369 94.5421 97.0058 96.3627 95.4879C98.1833 93.97 99.4138 91.8616 99.8398 89.5299L106.28 54.0865C106.534 52.7328 106.494 51.3402 106.163 50.0032C105.398 49.8253 104.615 49.7392 103.83 49.7465H63.7431C61.3728 49.7462 59.0774 50.5773 57.2568 52.0952C55.4362 53.613 54.2058 55.7215 53.7798 58.0532L47.3398 93.4965C47.0857 94.8503 47.1255 96.2428 47.4565 97.5799Z" fill="#76974C"/>
<path d="M97.4369 53.9003C97.3174 53.6797 97.1553 53.485 96.9598 53.3277C96.7643 53.1704 96.5395 53.0536 96.2984 52.9841C96.0573 52.9146 95.8048 52.8938 95.5556 52.9229C95.3064 52.952 95.0655 53.0305 94.8469 53.1536L73.3336 65.1703L59.1469 53.3403C58.7557 53.116 58.2972 53.039 57.8541 53.1232C57.4111 53.2074 57.0128 53.4472 56.7311 53.7993C56.4493 54.1514 56.3028 54.5927 56.318 55.0434C56.3331 55.4941 56.5089 55.9245 56.8136 56.257L79.5869 75.2503C79.977 75.5672 80.4751 75.72 80.9758 75.6765C81.4765 75.633 81.9407 75.3965 82.2702 75.017C82.4329 74.8263 82.5561 74.6052 82.6325 74.3664C82.7089 74.1277 82.7371 73.8762 82.7154 73.6265C82.6937 73.3767 82.6225 73.1338 82.506 72.9119C82.3895 72.6899 82.2301 72.4934 82.0369 72.3336L76.5769 67.667L96.6669 56.467C96.8865 56.3495 97.0806 56.1898 97.2382 55.997C97.3959 55.8042 97.5138 55.5822 97.5854 55.3437C97.657 55.1052 97.6807 54.8549 97.6552 54.6072C97.6297 54.3595 97.5555 54.1193 97.4369 53.9003Z" fill="black"/>
<path d="M105.534 44.5902C104.395 43.2237 102.967 42.1274 101.353 41.3808C99.7387 40.6342 97.9786 40.256 96.2002 40.2735H35.5335C35.0291 40.2735 34.5455 40.4739 34.1888 40.8305C33.8322 41.1871 33.6318 41.6708 33.6318 42.1752C33.6318 42.6796 33.8322 43.1632 34.1888 43.5199C34.5455 43.8765 35.0291 44.0769 35.5335 44.0769H96.2002C97.405 44.0598 98.5989 44.308 99.6971 44.804C100.795 45.3 101.771 46.0315 102.555 46.9467C103.338 47.8619 103.911 48.9384 104.233 50.0997C104.554 51.2611 104.616 52.479 104.413 53.6669L97.9502 89.1802C97.6054 91.0752 96.6057 92.7887 95.1257 94.0214C93.6457 95.254 91.7796 95.9273 89.8535 95.9235H49.6968C48.503 95.9195 47.3244 95.6559 46.2425 95.1512C45.1607 94.6465 44.2015 93.9126 43.4313 93.0005C42.6612 92.0883 42.0985 91.0196 41.7824 89.8684C41.4662 88.7173 41.404 87.5111 41.6002 86.3335L44.4935 70.4202C44.5956 69.9128 44.492 69.3855 44.2053 68.9545C43.9187 68.5235 43.4726 68.224 42.9652 68.1219C42.4577 68.0198 41.9305 68.1234 41.4995 68.41C41.0685 68.6966 40.7689 69.1427 40.6668 69.6502L37.8668 85.5635C37.5524 87.2956 37.6223 89.0757 38.0717 90.7778C38.5211 92.4799 39.3389 94.0624 40.4675 95.4135C41.596 96.7646 43.0076 97.8513 44.6024 98.5967C46.1973 99.342 47.9364 99.7278 49.6968 99.7269H89.8768C92.6926 99.7284 95.4196 98.7411 97.5817 96.9372C99.7438 95.1333 101.204 92.6274 101.707 89.8569L108.147 54.4135C108.457 52.6847 108.384 50.9088 107.932 49.2113C107.481 47.5139 106.662 45.9363 105.534 44.5902Z" fill="black"/>
<path d="M50.0003 54.1803H35.5569C35.0526 54.1803 34.5689 53.9799 34.2123 53.6233C33.8556 53.2667 33.6553 52.783 33.6553 52.2786C33.6553 51.7743 33.8556 51.2906 34.2123 50.9339C34.5689 50.5773 35.0526 50.377 35.5569 50.377H50.0003C50.5046 50.377 50.9883 50.5773 51.345 50.9339C51.7016 51.2906 51.9019 51.7743 51.9019 52.2786C51.9019 52.783 51.7016 53.2667 51.345 53.6233C50.9883 53.9799 50.5046 54.1803 50.0003 54.1803Z" fill="black"/>
<path d="M45.6837 64.3068H38.1004C37.596 64.3068 37.1123 64.1064 36.7557 63.7498C36.3991 63.3931 36.1987 62.9094 36.1987 62.4051C36.1987 61.9007 36.3991 61.417 36.7557 61.0604C37.1123 60.7038 37.596 60.5034 38.1004 60.5034H45.6837C46.1881 60.5034 46.6718 60.7038 47.0284 61.0604C47.385 61.417 47.5854 61.9007 47.5854 62.4051C47.5854 62.9094 47.385 63.3931 47.0284 63.7498C46.6718 64.1064 46.1881 64.3068 45.6837 64.3068Z" fill="black"/>
</svg>
