<svg width="76" height="60" viewBox="0 0 76 60" fill="none" xmlns="http://www.w3.org/2000/svg">
<path d="M64.4369 13.9003C64.3174 13.6797 64.1553 13.485 63.9598 13.3277C63.7643 13.1704 63.5395 13.0536 63.2984 12.9841C63.0573 12.9146 62.8048 12.8938 62.5556 12.9229C62.3064 12.952 62.0655 13.0305 61.8469 13.1536L40.3336 25.1703L26.1469 13.3403C25.7557 13.116 25.2972 13.039 24.8541 13.1232C24.4111 13.2074 24.0128 13.4472 23.7311 13.7993C23.4493 14.1514 23.3028 14.5927 23.318 15.0434C23.3331 15.4941 23.5089 15.9245 23.8136 16.257L46.5869 35.2503C46.977 35.5672 47.4751 35.72 47.9758 35.6765C48.4765 35.633 48.9407 35.3965 49.2702 35.017C49.4329 34.8263 49.5561 34.6052 49.6325 34.3664C49.7089 34.1277 49.7371 33.8762 49.7154 33.6265C49.6937 33.3767 49.6225 33.1338 49.506 32.9119C49.3895 32.6899 49.2301 32.4934 49.0369 32.3336L43.5769 27.667L63.6669 16.467C63.8865 16.3495 64.0806 16.1898 64.2382 15.997C64.3959 15.8042 64.5138 15.5822 64.5854 15.3437C64.657 15.1052 64.6807 14.8549 64.6552 14.6072C64.6297 14.3595 64.5555 14.1193 64.4369 13.9003Z" fill="black"/>
<path d="M72.5335 4.5902C71.3952 3.22366 69.9672 2.1274 68.353 1.38081C66.7387 0.63422 64.9786 0.255997 63.2002 0.273532H2.5335C2.02915 0.273532 1.54545 0.473885 1.18882 0.830517C0.832189 1.18715 0.631836 1.67084 0.631836 2.1752C0.631836 2.67955 0.832189 3.16325 1.18882 3.51988C1.54545 3.87651 2.02915 4.07686 2.5335 4.07686H63.2002C64.405 4.0598 65.5989 4.30805 66.6971 4.80401C67.7952 5.29998 68.7708 6.0315 69.5547 6.94671C70.3385 7.86191 70.9113 8.93837 71.2326 10.0997C71.5538 11.2611 71.6156 12.479 71.4135 13.6669L64.9502 49.1802C64.6054 51.0752 63.6057 52.7887 62.1257 54.0214C60.6457 55.254 58.7796 55.9273 56.8535 55.9235H16.6968C15.503 55.9195 14.3244 55.6559 13.2425 55.1512C12.1607 54.6465 11.2015 53.9126 10.4313 53.0005C9.66119 52.0883 9.09855 51.0196 8.78236 49.8684C8.46618 48.7173 8.40401 47.5111 8.60017 46.3335L11.4935 30.4202C11.5956 29.9128 11.492 29.3855 11.2053 28.9545C10.9187 28.5235 10.4726 28.224 9.96517 28.1219C9.45772 28.0198 8.93049 28.1234 8.49947 28.41C8.06845 28.6966 7.76894 29.1427 7.66684 29.6502L4.86684 45.5635C4.55235 47.2956 4.62228 49.0757 5.07167 50.7778C5.52107 52.4799 6.33895 54.0624 7.46747 55.4135C8.59599 56.7646 10.0076 57.8513 11.6024 58.5967C13.1973 59.342 14.9364 59.7278 16.6968 59.7269H56.8768C59.6926 59.7284 62.4196 58.7411 64.5817 56.9372C66.7438 55.1333 68.2038 52.6274 68.7068 49.8569L75.1468 14.4135C75.4571 12.6847 75.3839 10.9088 74.9324 9.21131C74.4808 7.51386 73.6619 5.93632 72.5335 4.5902Z" fill="black"/>
<path d="M17.0003 14.1803H2.55694C2.05259 14.1803 1.56889 13.9799 1.21226 13.6233C0.855627 13.2667 0.655273 12.783 0.655273 12.2786C0.655273 11.7743 0.855627 11.2906 1.21226 10.9339C1.56889 10.5773 2.05259 10.377 2.55694 10.377H17.0003C17.5046 10.377 17.9883 10.5773 18.345 10.9339C18.7016 11.2906 18.9019 11.7743 18.9019 12.2786C18.9019 12.783 18.7016 13.2667 18.345 13.6233C17.9883 13.9799 17.5046 14.1803 17.0003 14.1803Z" fill="black"/>
<path d="M12.6837 24.3068H5.1004C4.59604 24.3068 4.11235 24.1064 3.75572 23.7498C3.39908 23.3931 3.19873 22.9094 3.19873 22.4051C3.19873 21.9007 3.39908 21.417 3.75572 21.0604C4.11235 20.7038 4.59604 20.5034 5.1004 20.5034H12.6837C13.1881 20.5034 13.6718 20.7038 14.0284 21.0604C14.385 21.417 14.5854 21.9007 14.5854 22.4051C14.5854 22.9094 14.385 23.3931 14.0284 23.7498C13.6718 24.1064 13.1881 24.3068 12.6837 24.3068Z" fill="black"/>
</svg>
