<svg width="76" height="76" viewBox="0 0 76 76" fill="none" xmlns="http://www.w3.org/2000/svg">
<path d="M75.1935 1.83333C74.8901 1.13333 74.2135 0.666664 73.4435 0.666664H32.9368C26.3101 0.666664 20.9201 6.05666 20.9201 12.6833C20.9201 13.7333 21.7601 14.5733 22.8101 14.5733C23.8601 14.5733 24.7001 13.7333 24.7001 12.6833C24.7001 8.15666 28.3868 4.44666 32.9368 4.44666H68.8468L64.8568 8.43666C64.5068 8.78666 64.2968 9.27666 64.2968 9.79V43.0633C64.2968 45.2567 63.4335 47.3333 61.8935 48.8733C60.3535 50.4367 58.2768 51.2767 56.0835 51.2767H55.0801V32.9367C55.0801 26.31 49.6901 20.92 43.0635 20.92H19.9168C13.2901 20.92 7.90013 26.31 7.90013 32.9367V57.1567C7.90013 58.2067 8.74013 59.0467 9.79013 59.0467C10.8401 59.0467 11.6801 58.2067 11.6801 57.1567V32.9367C11.6801 28.41 15.3668 24.7 19.9168 24.7H43.0635C47.5901 24.7 51.3001 28.3867 51.3001 32.9367V63.3167C51.3001 65.51 50.4368 67.5867 48.8968 69.1267C47.3568 70.69 45.2801 71.53 43.0868 71.53H7.15347L11.1435 67.54C11.8901 66.7933 11.8901 65.6033 11.1435 64.8567C10.3968 64.11 9.2068 64.11 8.46013 64.8567L1.2268 72.09C0.690131 72.6267 0.526798 73.4433 0.806798 74.1667C1.0868 74.89 1.7868 75.3333 2.5568 75.3333H43.0635C46.2835 75.3333 49.2935 74.0733 51.5568 71.81C53.8201 69.5467 55.0801 66.5133 55.0801 63.3167V55.08H56.0835C59.3035 55.08 62.3135 53.82 64.5768 51.5567C66.8401 49.2933 68.1001 46.26 68.1001 43.0633V10.5833L74.7735 3.91C75.3101 3.37333 75.4735 2.55666 75.1935 1.83333Z" fill="black"/>
<path d="M31.6768 58.58C31.3268 58.58 30.9768 58.4867 30.6502 58.2767C28.3168 56.8067 24.1635 53.82 22.5068 50.4133C20.2435 46.0967 20.3835 41.7333 22.9035 39.33C24.3035 38 26.3102 37.4167 28.2702 37.72C29.5535 37.93 30.6968 38.49 31.6535 39.3767C32.6102 38.49 33.7768 37.93 35.0602 37.72C37.0435 37.3933 39.0268 38 40.4268 39.33C42.9468 41.7333 43.0868 46.0967 40.8002 50.46C39.1668 53.7967 35.0135 56.7833 32.6802 58.2533C32.3768 58.44 32.0268 58.5567 31.6535 58.5567L31.6768 58.58ZM27.2202 41.4767C26.5668 41.4767 25.9368 41.71 25.5168 42.1067C24.3268 43.25 24.4668 46.0267 25.8902 48.71C26.7302 50.4133 28.8302 52.4667 31.6768 54.4033C34.5002 52.4667 36.6235 50.4133 37.4402 48.7567C38.8868 46.0267 39.0268 43.25 37.8368 42.1067C37.3002 41.5933 36.4835 41.36 35.6902 41.5C35.0135 41.6167 34.0802 42.0367 33.3568 43.39C32.7035 44.6267 30.6502 44.6267 29.9968 43.39C29.2735 42.0367 28.3402 41.6167 27.6635 41.5C27.5235 41.4767 27.3835 41.4533 27.2202 41.4533V41.4767Z" fill="black"/>
</svg>
