<svg width="24" height="24" viewBox="0 0 24 24" fill="none" xmlns="http://www.w3.org/2000/svg">
    <path d="M1.5 12C1.5 6.196 6.196 1.5 12 1.5S22.5 6.196 22.5 12 17.804 22.5 12 22.5 1.5 17.803 1.5 12zm.535 0c0 5.495 4.47 9.965 9.965 9.965s9.965-4.47 9.965-9.965S17.495 2.035 12 2.035 2.035 6.505 2.035 12z" fill="#000" stroke="#000"/>
    <path d="M11.074 16.033c0-.34.277-.614.6-.614.332 0 .615.282.615.614a.625.625 0 0 1-.615.615c-.33 0-.6-.28-.6-.615zM13.018 11.121l-.001.001c-.441.345-.72.68-.865 1.078-.138.373-.138.757-.138 1.115v.01a.174.174 0 0 1-.003.035.284.284 0 0 1-.063.027 1.022 1.022 0 0 1-.288.032.637.637 0 0 1-.24-.028.316.316 0 0 1-.028-.082 1.72 1.72 0 0 1-.029-.36c0-.544.12-.921.267-1.192.149-.274.34-.467.528-.628a6.67 6.67 0 0 1 .257-.203l.128-.1c.147-.114.313-.247.466-.4.306-.303.613-.731.613-1.314 0-.5-.229-.899-.595-1.153-.346-.239-.782-.331-1.208-.331-.433 0-.777.082-1.057.236-.28.154-.455.358-.578.527l-.11.158a6.057 6.057 0 0 1-.037.055.883.883 0 0 1-.089.113l-.003.004c-.017.017-.022.022-.066.022a.444.444 0 0 1-.267-.09c-.057-.046-.102-.112-.102-.236 0-.42.58-1.44 2.352-1.44 1.693 0 2.585.907 2.585 1.89 0 .526-.24 1.005-.558 1.412a4.998 4.998 0 0 1-.871.842zm-1.606 2.266.004.002-.004-.002z" fill="#000" stroke="#000"/>
</svg>
