<svg width="175" height="175" viewBox="0 0 175 175" fill="none" xmlns="http://www.w3.org/2000/svg">
<path d="M87.5002 14.5833C47.3231 14.5833 14.5835 47.3228 14.5835 87.4999C14.5835 127.677 47.3231 160.417 87.5002 160.417C127.677 160.417 160.417 127.677 160.417 87.4999C160.417 47.3228 127.677 14.5833 87.5002 14.5833ZM122.354 70.7291L81.0106 112.073C79.9897 113.094 78.6043 113.677 77.146 113.677C75.6877 113.677 74.3022 113.094 73.2814 112.073L52.646 91.4374C50.5314 89.3228 50.5314 85.8228 52.646 83.7082C54.7606 81.5937 58.2606 81.5937 60.3752 83.7082L77.146 100.479L114.625 62.9999C116.74 60.8853 120.24 60.8853 122.354 62.9999C124.469 65.1145 124.469 68.5416 122.354 70.7291Z" fill="#04B155"/>
</svg>
