<svg 
          width="88" 
          height="77" fill="none" 
          xmlns="http://www.w3.org/2000/svg">
          <path d="M 59.72539785453577 22.135902805028213 C 60.329085060757194 21.864945937368915 60.93245913147622 21.59367786680683 61.536146337697645 21.32272099914753 C 62.65198697832456 20.82177671343687 63.76813745125846 20.320523000800037 64.8640523263943 19.777678172739943 C 73.82533614990069 15.340875962410186 81.18446776108267 8.278306012188274 88 0.9755067347570465 C 87.9059754889404 0.9963018207248862 87.81194914071033 1.0170969275049517 87.71792462965072 1.0385127612377036 C 79.26007688516297 2.956626559899463 71.32932767860467 7.444950813904714 65.73300085889828 14.04940766951274 C 63.999774141061216 16.094775076789848 62.485110139804455 18.337540657179005 60.53519113051205 20.178992057156 C 56.03602460195651 24.428638595523864 49.66913162197894 26.15059622072176 44.840568071333365 30.02406871168965 C 48.03771294982166 25.895468299663076 49.49664900103813 20.68459247256539 50.27281827148204 15.526480318796262 C 51.048987541925946 10.368678368943076 51.21493161744422 5.125522982828843 52.18381999737634 0 C 52.15455408962247 0.15487683443584835 51.82391021796771 0.42459218344062494 51.71930016254825 0.550914569816178 C 51.53841194848445 0.7694181530604307 51.359705253747485 0.9900943847002153 51.1834871270527 1.2126328388225107 C 50.84474978176641 1.640328781899923 50.515040700496066 2.075163410991435 50.194361070907426 2.516205448357983 C 49.55300181173014 3.3985998750050745 48.94807019158669 4.307065786402447 48.3808096965352 5.238499367414043 C 47.24566607265383 7.101366529437236 46.260586913380834 9.055172870181185 45.43366935277074 11.073227237053977 C 43.77952276620314 15.10964647071161 42.757082054343265 19.404607644479928 42.432043654274814 23.753263399320733 C 42.30906456626851 25.396695922357686 42.35825836896105 27.0463353356765 42.44107466476784 28.690078210627448 C 42.46193440876243 29.105359189156736 42.484974934432074 29.520640093686996 42.50770271430214 29.935921072216285 C 42.518599595268306 30.135491819724844 42.52949294107309 30.33475262231405 42.540078483113284 30.53432336982261 C 42.55097536407945 30.735445987899684 42.601104702927 30.953328497320815 42.55066771109274 31.151347374260858 C 42.51828840712022 31.278600881127545 42.4448097158685 31.39157718246384 42.36510681164106 31.49617336238042 C 42.02169937898576 31.94900962346759 41.54472853874463 32.22989945435233 41.08301211473067 32.5461709944116 C 40.54408353501157 32.91489578188639 40.00608883173097 33.284551958098795 39.47027364359122 33.65793235727914 C 38.934769772340665 34.03131275645948 38.40175714138027 34.40841730460875 37.87372543218887 34.7923504458547 C 37.504165487998364 35.06113468361822 37.137095151057586 35.33333405041913 36.77313931913281 35.60956727061148 C 35.84690447064387 36.291149505094516 34.92814234093241 36.98266270482931 34.01747445034018 37.68472964561656 C 33.129223008810854 38.36941562123663 32.265567754172615 39.24156547476084 31.30975564856538 39.82258636320583 C 29.273595625719008 41.46943305329283 27.283513768555252 43.17338863950043 25.338264809517305 44.92638323207448 C 27.30686416828576 41.00294038300205 28.811257087530425 36.86316907804826 29.981270726792065 32.63586965346468 C 31.26679139406588 27.991116564956773 32.168117551108764 23.247043464067765 32.93743733038648 18.493038509938703 C 33.3745579386549 15.791539501102797 33.72979634096372 13.077936027630814 34.16100148296266 10.376126814878964 C 34.193069446849385 10.174693826388138 33.94555461680099 10.109826058418637 33.840944561381534 10.265323633681989 C 31.132602531995445 14.28343077243143 29.030127854919066 18.76927095314128 27.45319349828571 23.339534254360448 C 25.85135200901762 27.98180423156029 24.78657027026954 32.81650808323072 24.362837290329754 37.70893975887312 C 24.129021363745313 40.40826586031691 24.040913673636464 43.165322745693686 24.278154345804 45.86744245835758 C 24.131513466948878 45.867752832782024 24.061460660088205 45.97731181809898 24.060215302209652 46.0930814716588 C 20.73978002810449 49.16082208266241 17.565985846263143 52.38530328606417 14.583353892547558 55.781109697847185 C 13.493354483681202 57.02229698472999 12.43262175733505 58.28986507229071 11.3949273715391 59.576366994573974 C 11.384653169584702 59.57481512256017 11.374378416711124 59.57698634098234 11.365660911706227 59.5875390714856 C 11.303704359894038 59.66202892814843 11.242682120616367 59.73745180615237 11.181348248975773 59.81256241289258 C 11.184150303948806 59.774386359445096 11.18757499994918 59.7365218580833 11.190065715706286 59.698345804635814 C 13.549396125942238 54.993380004871256 15.428329985375514 50.07674087993722 16.93645826191593 45.034708333897136 C 18.620804665151134 39.403275323735166 19.88764490871979 33.65731194944725 21.001306108434964 27.88962423717576 C 21.62772111772305 24.64590121510629 22.196537158012994 21.39224574780456 22.810809917872913 18.146350114339068 C 22.84163252373611 17.98278279731963 22.607195626569272 17.832562277580074 22.496358778712494 17.987749482429674 C 19.14852553994255 22.673782187461946 16.201696661525514 27.713951734029745 13.970949479397508 33.02445807342057 C 11.7025302814282 38.42497268378821 10.309285786731397 44.110098795042155 10.086366730674653 49.96996738968649 C 9.95186808269042 53.507304634114995 10.108471937077466 57.07071676724896 10.410471217190057 60.59812186244131 C 10.381827987288128 60.65429962882089 10.353184453510782 60.710164601318624 10.324541223608852 60.7663423676982 C 10.31831443465102 60.77161873294983 10.311777065875855 60.77689824200383 10.305861616423906 60.78217460725546 C 10.279086422397446 60.8051423138692 10.27130324094545 60.83462549595205 10.275039314436132 60.864111064503476 C 10.252622874651866 60.90849460716243 10.23020572041241 60.95287685946338 10.204987224495282 61.004399009512476 C 8.9070129909041 62.60499986045899 7.640172673106335 64.2313636202184 6.42376940281466 65.89372894199154 C 4.86427012810055 68.02475969344954 3.479120930287798 70.29918176105842 2.1584189307445096 72.58260625414395 C 1.4021754257916736 73.88990323464542 0.6474885238421204 75.21551423402974 0.01796012297469246 76.58830020432188 C -0.030297492898298563 76.69351712506597 0.025432257197929367 76.7813536171358 0.10513516142537167 76.81580517705642 C 0.0824073815553077 76.86018871971538 0.05781157276875391 76.90395211353903 0.03508379289868995 76.948335656198 C 0.013601371052158504 76.99023620317237 0.07773729418629509 77.02189306501216 0.10046507405635906 76.98092364315387 C 0.12848562610635114 76.93002223855723 0.1580628809049932 76.88004991485356 0.18639477072112365 76.8294588852956 C 0.23932247860244668 76.82697588990007 0.2922502096803667 76.8027696011791 0.3271202296999578 76.74224659350772 C 1.1714727980001867 75.28503868669067 1.9806439969163878 73.81075713266038 2.8169018064936164 72.35106626253332 C 5.136380685747417 68.5964669905146 7.670372786690369 64.97191508632939 10.392725115298052 61.496031960813504 C 10.409537446296081 61.496031960813504 10.424792861136767 61.4994460793017 10.4428505489985 61.496031960813504 C 15.586800822512528 60.46496816350487 20.815747584314824 59.99878776910275 26.009512123098318 59.29827273588353 C 28.5786852593943 58.95189487719545 31.1428761377973 58.54623739796592 33.67344330758438 57.98011447437858 C 36.19996291243718 57.41492268053226 38.65362976301209 56.64581066144135 41.08830435338887 55.772106680378336 C 43.832761517253815 54.787288648211174 46.585623791752525 53.75994929586756 49.47952404834231 53.306492293952886 C 49.72423686401173 53.2683162405054 49.753194846218875 52.95359659182687 49.51221811157904 52.87972748061649 C 44.07031575174114 51.208050861433236 38.29465615186574 50.640999324071764 32.62890076674622 51.22853808370432 C 27.356055502860382 51.77541778264246 22.20805766441208 53.36949832043355 17.529559543353308 55.84970028280314 C 15.646267247471215 56.84817476117344 13.852017520229456 57.99594301398455 12.159576284042144 59.283065640095806 C 12.491152821273037 58.87709592197712 12.823975219893617 58.471747314681075 13.161778540283192 58.07105394909544 C 16.655318475274687 53.926314053556695 20.433734890327163 50.02459347049511 24.425106606498797 46.3531744313492 C 27.32492232935807 46.32306811272039 30.228784429485852 46.10053235956254 33.122684686075644 45.93013680094178 C 35.99697064252178 45.76067237206203 38.87032131217633 45.56730892182997 41.73838033700556 45.31404340825136 C 47.44896832333445 44.809684992490155 53.147414208693384 44.05733719368632 58.7372029283519 42.766800400525014 C 61.95271683942704 42.024384824956364 65.08385838057454 40.96476754157477 68.30559892635014 40.251837543807426 C 68.50298814176465 40.20807475122585 68.53132243242855 39.883424370855 68.34016000017274 39.809865634683305 C 62.99477270506533 37.753324818512105 57.1322490124829 37.247411794218436 51.453106258836634 37.676659607864366 C 45.553535114148175 38.122667645849965 39.79250993185497 39.64474258064626 34.238214009813355 41.6274143133567 C 31.45110331450523 42.62247469867597 28.705712645347347 43.73082322647593 25.999549982643885 44.92669580395925 C 27.16551620542947 43.886631135153515 28.34455736641594 42.86084258039255 29.54352562901748 41.859574712799215 C 31.498426005453545 40.2276260985684 33.495981249456776 38.64658097015683 35.53027322250972 37.11395207231101 C 36.547730525925395 36.347637623388096 37.57421653873166 35.59342756510223 38.609420240955785 34.85132234144758 C 39.63715181823531 34.114493470325975 40.757975459046314 33.452152906512595 41.741496771978426 32.66007739875242 C 42.85079923832834 31.76619906329919 44.150949498292185 31.779857049607045 45.53547606232654 31.85558840642464 C 52.04247054993783 32.21251897017882 58.57655331836515 32.34132300638168 65.06891516989289 31.78047643532739 C 70.47470239525192 31.313362950210074 75.91567362512842 30.369204089735874 81.2918832222236 31.0992047007564 C 81.27258017633834 30.174599305846854 80.33450896498707 29.571852636437292 79.4942038131629 29.180160142348758 C 74.19551791134938 26.71020053313127 68.23897206448162 25.786216656039 62.398866750918955 26.113972030905376 C 56.558761437356296 26.441727405771754 50.828246794787006 27.99111686095287 45.44020626515286 30.260264130008256 C 49.60156947331882 27.29587825426573 54.04656448782183 24.72721948449319 58.69517381218577 22.60022360391324 C 59.037335865940605 22.44472602864989 59.381367750987515 22.29046925980043 59.72539785453577 22.135902805028213 Z M 60.819755848309164 20.889129331691542 C 61.59561380186388 20.198546299710433 62.184977165101195 19.35898324915768 62.765313897363 18.505763974398874 C 63.844727789705416 16.918198939826528 65.00571101230692 15.390535968600735 66.28375948040703 13.95598537948392 C 71.29819302052017 8.327345388549858 77.91073002035768 4.127979708198585 85.15715571323918 2.0003631237906445 C 85.84988597059015 1.7970678943175513 86.54946475412888 1.6186025014419239 87.2518465773362 1.452552184112959 C 85.82373253119106 2.909449591017956 84.41803849710614 4.385590592567285 82.95131833599388 5.806174309567948 C 81.34605206402813 7.361150173200006 79.68163335624088 8.854361122011285 77.9923054374038 10.317776511102391 C 74.67529479753807 13.190912412216013 71.14625879884882 15.866339936301639 67.304952512264 18.00792339282573 C 65.74856655490012 18.87573024352868 64.13427476539552 19.657874490041003 62.47763749525608 20.327972815717903 C 63.02684031172447 19.985940216821376 63.56639078293086 19.627457005508912 64.10064927528094 19.264629311394668 C 65.4054729258092 18.378200013869535 66.6667097622887 17.43031681942885 67.90459545674656 16.45356852901777 C 70.44512536082095 14.449170534349081 72.90751012350104 12.345452379301248 75.36211033091067 10.238320501197517 C 76.84252947435532 8.967337358598435 78.32357154849483 7.693871252689337 79.77659272727469 6.391850550721893 C 79.82516168323347 6.348398133179007 79.75355189540997 6.263355423452026 79.70186954787184 6.303704095232941 C 77.04552144735429 8.390351267032463 74.43587147404976 10.544039484188735 71.84957457272374 12.716660352083137 C 69.45008146307465 14.732542107559912 67.03657864803688 16.73352623117465 64.48017024648924 18.55076840588339 C 63.274663883839814 19.407712125607215 62.01903297823926 20.180233982805163 60.77242974282177 20.971378360824325 C 60.74129579687278 20.982241465210045 60.71047189895913 20.994036223111134 60.679649293095935 21.004899327496855 C 60.72541619292186 20.96517140116838 60.77430028856904 20.929478003472457 60.819755848309164 20.889129331691542 Z M 11.49268770382639 42.23792403556013 C 12.675777617412908 36.64466682678646 14.906213408422602 31.32546944981936 17.676200635617125 26.33713178084787 C 19.09653116569935 23.779646715965523 20.674087859194664 21.32427349870777 22.31235609674725 18.903353043854786 C 21.386432565147516 24.378978441335267 20.35340793268958 29.84653498504797 19.117390288025142 35.26039605969988 C 17.817859469987955 40.95297298485853 16.254624392603432 46.59744107140441 14.16771600536177 52.056616781456775 C 13.279153172714134 54.38132103906472 12.314311912341628 56.66816073518667 11.240813486268694 58.90906390809575 C 11.276617524226019 58.301040442158985 11.308374489016925 57.6927037013467 11.356943444975714 57.08654249489196 C 11.44972260497076 55.92884594079402 11.556822796522352 54.77208466038253 11.684471971897668 53.617491847421626 C 11.942261043334685 51.28595925571358 12.282244862400823 48.96466783317322 12.711581954606334 46.65796517056142 C 13.564963380755387 42.07342479331015 14.78198861676347 37.54909623932723 16.381962056238134 33.16660960989405 C 17.273949597354314 30.723342189254836 18.318182008969032 28.34308123909043 19.374556744241033 25.96716506772391 C 19.406313368041964 25.896089327236805 19.303260312287602 25.84363510395912 19.265899578540605 25.91284859883902 C 17.04636054671494 30.023757619785396 15.449812186854373 34.51487541101173 14.16709366849981 38.99606105300191 C 12.878148366986562 43.49959380877637 11.952535855359583 48.107102891628216 11.315846646436759 52.74564834986401 C 11.135581103265919 54.05822175689756 10.9789770169129 55.37451775892048 10.849459801022796 56.69329864822809 C 10.801202185149805 57.18555245135516 10.750454321801007 57.68090962562413 10.703753401717687 58.17688794771525 C 10.595718609993774 55.91922443946795 10.48519307670654 53.662184743007735 10.515704342483938 51.39924495622641 C 10.557112490387329 48.31971008450267 10.855064470006852 45.253521677063176 11.49268770382639 42.23792403556013 Z M 23.869675707862292 53.50078887189966 C 29.087102111723716 51.74469046418955 34.67751257441131 51.031759134439746 40.16891803108769 51.47714639459833 C 43.006154457012705 51.70713383114945 45.81941784942882 52.23104617496922 48.54893091186278 53.03708848084652 C 46.34682696195637 53.46912964671597 44.21757888395047 54.18981970031664 42.10576336407408 54.94558137017442 C 39.65334252334708 55.823320222115484 37.20745800116931 56.68647234910119 34.67159799889115 57.29759955617499 C 29.52982709205975 58.53661423166177 24.25449188689319 59.02638514547786 19.016517083762288 59.67692989459157 C 16.518951879562053 59.98699393387702 14.02481086422659 60.336164941291294 11.55215294111931 60.80669255645915 C 14.53571899396072 59.17226097891832 17.83965402756356 58.179062113090815 21.100623470542917 57.2473181061662 C 24.75855059969023 56.20197708482742 28.522022616395294 55.517289592227314 32.27739920631536 54.926647091457724 C 34.39793219292227 54.59299458623128 36.53652141064462 54.362387870333414 38.653941079901294 54.01445814107682 C 38.70500075190715 54.00607803179757 38.704066750207026 53.92786387007413 38.649582346536036 53.93220911194404 C 36.713051002686825 54.086465196302505 34.77620938115595 54.37914716968527 32.85306555429171 54.64979364843106 C 30.963235009903514 54.91609488588505 29.077762901964128 55.2131244407788 27.202253973686723 55.565709781740935 C 23.41854561689249 56.27708794593928 19.607438404684153 57.11975236966023 15.969748209458894 58.39290827165339 C 14.277618290160783 58.98510264299149 12.487105701713425 59.61143809283791 11.0670864885204 60.73809723556554 C 11.088568910366932 60.70768054421051 11.10569256202361 60.67291993429627 11.110362653741984 60.62791564618487 C 11.111919350981442 60.611776176547515 11.112853350361899 60.59532485535966 11.11472138710724 60.57887501183985 C 11.21652938639383 60.45224225505054 11.318026078069858 60.32561233797385 11.41952274190997 60.198669201520914 C 15.173031133578387 57.31342883577121 19.374245278893614 55.01386411918326 23.869675707862292 53.50078887189966 Z M 25.10444904994836 43.17370269136571 C 25.097910921484644 42.25996042743529 25.125308107323686 41.346214389554554 25.183528587384938 40.43464473702015 C 25.302148923468707 38.58046802058104 25.553088271773557 36.73467287779251 25.901788462690828 34.90998166515568 C 26.58611257020049 31.326398877582776 27.63750660639083 27.830342137666943 28.85826861004776 24.394497517015548 C 29.555668991882303 22.43200013869532 30.281712160563774 20.478814353781306 31.06441953105557 18.548285590571425 C 31.072514357048703 18.528421627407187 31.04293724142964 18.512902974908833 31.033908397498774 18.533077310799293 C 29.535431538356473 21.892570032677973 28.09392960408082 25.26665003450469 26.98711782130273 28.777915646184866 C 25.969660517887057 32.00518868483012 25.19816092655205 35.31098504965969 24.821440174306147 38.673891790590375 C 24.8226855321847 38.65620044922827 24.82299787871285 38.63819964278424 24.823931897085522 38.620508301422134 C 24.98146965574698 36.204553921187234 25.28969581180464 33.79511811513065 25.73615659481109 31.415787924712124 C 26.630634819499097 26.645643487070892 28.125996950938067 21.999648990906998 30.17087444051495 17.595746451429576 C 31.213861584572868 15.349256500074421 32.42528452692843 13.20425887650028 33.72325876051961 11.099609961706562 C 33.14105397846438 15.59352106815691 32.430577507877736 20.09208671332693 31.543571408134323 24.533854850276715 C 30.607062360010644 29.222060166705006 29.42864212553303 33.8761261806016 27.764844121567307 38.36414015669188 C 27.00548722503513 40.412300879193 26.132491498742425 42.41670005784609 25.15706501876242 44.37112769441024 C 25.134959916744293 43.9698135879971 25.107251104921396 43.568498926591275 25.10444904994836 43.17370269136571 Z M 41.546287275834835 39.74096247784258 C 47.1494633640201 38.297411091227694 52.975246616097294 37.55778757289961 58.7577542967858 38.100942789873216 C 61.713299751184024 38.37841751022032 64.60439800731278 39.00785775568989 67.40147173382466 39.98305413853294 C 64.84039343048079 40.62614992371758 62.33223929521754 41.47222755250126 59.76711342693939 42.105080984533785 C 56.951982133188075 42.799698887392935 54.10198067559828 43.34502738175379 51.23547838367327 43.780793066587286 C 45.571902365236376 44.64177165718915 39.855088634956346 45.08498845192347 34.13951898456736 45.42795218056101 C 31.53952324936716 45.584070515151616 28.923026382915317 45.79729621038304 26.31275644808038 45.853163606348865 C 27.8654063058574 45.522304490345455 29.407158736388403 45.104539179524174 30.953581811006746 44.769334803729215 C 33.05232113078738 44.31463628316002 35.15884500583846 43.89718454321036 37.269103792810625 43.498663789020746 C 41.55033276235402 42.6904487977484 45.85833409361937 42.03028054933495 50.18128249548012 41.48898759184337 C 52.58980453720714 41.18730366472776 55.00673554948166 40.98059548918853 57.41899369079553 40.715225362975794 C 57.50243266677391 40.70591413089294 57.497138906418954 40.58021086545997 57.412143234650905 40.58455610732988 C 55.243663884109736 40.69567014918415 53.079857256070994 40.931554392349604 50.92134078827536 41.15843808776369 C 48.7612675875755 41.38563215359154 46.605862952547895 41.65472801975225 44.45544131770437 41.95796381743637 C 40.21219597780792 42.55636567104854 35.990120483293595 43.30064572606998 31.800736676684448 44.19980041405626 C 30.61515600529699 44.45430742778964 29.432065646335808 44.71936574060763 28.25146641632112 44.995598960799974 C 27.218753471897937 45.237070250657965 26.172964995440985 45.46798672647762 25.15830969248634 45.783947877623376 C 25.161111747459376 45.74639257425327 25.163291598950877 45.708837421193685 25.166093653923912 45.67159249286227 C 25.24859860500558 45.59679226116074 25.3307916546438 45.521684151887655 25.413607950450583 45.447194295224826 C 30.706067514480075 43.3012656159087 36.003199355637335 41.168995084773286 41.546287275834835 39.74096247784258 Z M 43.68611894040779 30.78727927147748 C 44.632590871277 27.636358131604943 45.24157421318492 24.40225616686738 45.90690665432933 21.184294277634198 C 46.582201903990175 17.919465845432526 47.372068449496936 14.685676156583632 48.28398168187508 11.478577324330542 C 48.79675775005897 9.67499166982396 49.34035801307296 7.876992349769293 49.91135457059674 6.090787586430863 C 49.92287413057468 6.054473780903051 49.86091700928603 6.03243687103471 49.8475294122728 6.068750676562521 C 48.69930951406655 9.18056451531061 47.70956267987063 12.343590415815328 46.865832745348804 15.550689248068416 C 46.02334815261289 18.75313235761742 45.348049562642075 21.99157895315481 44.5886926661099 25.213575565267988 C 44.15188341184523 27.066821225965118 43.67273168322471 28.913549348470298 43.10173512570093 30.73048117126504 C 43.0833660977534 30.788831558290518 43.08865852662369 30.837560189618276 43.102357462562885 30.881633357238545 C 43.08461111362712 30.912050048593578 43.066556883218176 30.94215614060037 43.04849919535644 30.972572831955404 C 42.88597999532222 29.019697102959288 42.780748289660075 27.075510931558938 42.85204502548893 25.11146164567068 C 42.93081390481966 22.942565296740327 43.18673469449727 20.77708415084638 43.604863599285885 18.647605306956418 C 44.43551725948283 14.416581363408795 45.93025438181187 10.332984790874525 48.04362663459249 6.570936480927703 C 49.108096202816604 4.676100703794162 50.328550675268964 2.8697218080625957 51.68630205687515 1.1713530003010704 C 50.82856182313173 5.185735620086465 50.66884204409695 9.306265772363775 50.23390083962571 13.379309195837788 C 49.78650603172255 17.56719111538097 48.91288678090211 21.649236372339416 47.07006850132235 25.46280665196271 C 46.181194351785514 27.30239579245768 45.099912632337 29.042355012651722 43.86545172057679 30.669648052176505 C 43.80598588481167 30.709065603466286 43.74620745634451 30.74817209522639 43.68611894040779 30.78727927147748 Z M 50.83509725093164 28.66028442688389 C 53.33110572222765 27.891487014650963 55.88284362814616 27.28749727260734 58.467583796567965 26.90356413136138 C 63.48357377266889 26.1580448146557 68.64713953399234 26.257985308867706 73.57906771476371 27.48986137233942 C 74.95549944584594 27.833445841804462 76.31075910467275 28.263626043174842 77.62834763840759 28.789400294981263 C 78.27562236385435 29.047631809178927 78.92227657105238 29.32138121507246 79.54433280986065 29.635790495649704 C 80.0097852963469 29.87105430323363 80.48862834321164 30.1621848222924 80.77132456584067 30.602606118831442 C 78.44437348741316 30.266781002208976 76.02650882138748 30.346236817866412 73.69270832602288 30.49490616077832 C 71.20199268721795 30.653507477178703 68.72341528946923 30.95270786749185 66.24079448361641 31.20286963993343 C 61.17592434137184 31.713435537968692 56.11821641753578 31.732368947196832 51.03435431200951 31.576871371933482 C 49.007845855019475 31.514796489068654 46.981650496417295 31.444963118224862 44.95545335631646 31.376991123499725 C 45.280803073274114 31.31926148192669 45.60615364386654 31.25967001561591 45.93119204393499 31.203802619650084 C 46.88326812418449 31.03961456180314 47.834097897669636 30.868598391853173 48.78679661169753 30.707824445557016 C 50.69312813887915 30.386586941878207 52.60506262777529 30.098249090551978 54.518243571894 29.819843240463854 C 56.43298124891693 29.54112701996198 58.352386897779226 29.2946894889881 60.27304004107164 29.06159831129995 C 62.18279620249269 28.830059004180313 64.10189573050351 28.68294028310336 66.02721892405039 28.72763419617607 C 67.10756684128953 28.752774523435704 68.18604381379993 28.832851940159316 69.25829689808694 28.96755442945483 C 70.34549430649227 29.104119168982486 71.40592039238318 29.360488016703485 72.48564560161479 29.528710945428468 C 72.6269937129293 29.550747529238603 72.66310600814468 29.356452220837618 72.53016406522876 29.31486204890194 C 71.61358070836705 29.029938346126006 70.62974770740018 28.895546282743513 69.68109640984834 28.758671163552226 C 68.76046563651057 28.62552054482523 67.8339193226742 28.532718459130976 66.90519371638433 28.478713313397293 C 64.98671993977455 28.36728890112927 63.08070151098078 28.467540718492486 61.168454517529675 28.6236590530831 C 57.26550303313641 28.94241355645238 53.3759389172699 29.47160116131957 49.51532979588884 30.120904428778264 C 48.44307671160182 30.30123195163762 47.36957821129977 30.482181473307918 46.30261788527472 30.691994573968582 C 45.535166155790435 30.842836537526388 44.754637632377495 30.97815901840927 43.994346710948605 31.176177895349312 C 43.99559206882716 31.17431564887493 43.99715112240594 31.17245410336788 43.9987078196454 31.1705918568935 C 46.26401370026447 30.290990745470417 48.50752353872573 29.37724929552928 50.83509725093164 28.66028442688389 Z" fill="rgb(101.00000157952309,139.0000069141388,67.00000360608101)"/>
        </svg>